<svg
        xmlns="http://www.w3.org/2000/svg"
        viewBox="0 0 500 502"
      >
        <path
          d="M179 84c29.5-13.4 62.8-18 95-13.7 32.7 4.3 64 18.3 89 39.8 24 20.2 42.3 47 52.4 76.6 11.6 33.7 12.5 71 2.6 105a176 176 0 0 1-66.3 93.7 175 175 0 0 1-68.6 29.5c-42 8-86.6.2-123-22-2.3-1-4.5-3.5-7.2-2.4L89 407l17-62.4c1-2.2-1-4-2-6-19.3-29.4-29.3-64.8-28.3-100 1-72 47-129 103-155"
          fill="#40c351"
        />
        <path
          d="M188 146c4.7.1 7.8 4.3 9.6 8 6 13 10.8 26.4 16.5 39.5 1.2 2.7 2 5.7 1 8.6-3 8.5-10 14.6-15.6 21.4-2 2.3-1.8 5.6-.2 8a130 130 0 0 0 73.5 63.5c3 1.3 6.6 1 8.7-1.6a282 282 0 0 0 17-20.9c4.6-6 8.6-4.3 14.6-1.8l38.4 18.5c3 1.3 6 3.5 5.7 7 2 26-21.3 46.2-45.7 47-63-4.6-106-39.6-137-80-10.2-14.2-21-28.5-26.6-45.4-5.3-14.8-5.5-31.7.8-46.3 9.7-19.5 18.2-27 39.6-25.8zm-59-74.6c46.2-33 106-45.6 162-34.4a209 209 0 0 1 97.7 48.3 210 210 0 0 1 70.2 134 211 211 0 0 1-13 101c-14.8 38-41 71.4-74.2 95a209 209 0 0 1-109 38.5 210 210 0 0 1-113-25l-112 29 29.5-108c.6-1.3-.3-2.4-1-3.4a210 210 0 0 1-25-130 213 213 0 0 1 87.5-145M178.4 84c-33.5 15-62 40.8-80.2 72.7-14.4 25-22.4 53.5-23 82.3-1 35.2 9 70.5 28.3 100 1 1.8 2.8 3.7 2 6l-17 62.4c21.3-5.4 42.6-11.2 64-16.6 2.7-1 5 1.2 7.2 2.4a175 175 0 0 0 123 22.1 173 173 0 0 0 68.6-29.5 176 176 0 0 0 66.3-93.7 175 175 0 0 0-2.6-105 175 175 0 0 0-52.4-76.6 174 174 0 0 0-89.1-39.8c-32-4.3-65.4.3-95 13.7z"
          fill="#fcfcfc"
        />
      </svg>